<svg width="95" height="98" fill="none" xmlns="http://www.w3.org/2000/svg"><path d="M47.206 5.778c-5.952.574-10.434 5.873-9.86 11.826l2.946 30.609L30.2 53.026c-3.445-5.868-10.867-8.224-17.124-5.239C6.47 50.94 3.67 58.847 6.82 65.454c3.151 6.606 11.06 9.408 17.668 6.257a13.249 13.249 0 007.53-11.252l12.36-5.897 1.313 13.632a13.253 13.253 0 00-5.768 12.249c.703 7.286 7.177 12.622 14.462 11.921 7.287-.702 12.624-7.176 11.923-14.461-.665-6.9-6.507-12.047-13.31-11.98l-1.073-11.13 27.754-13.239c5.398-2.574 7.632-9.145 5.057-14.542L50.808 43.196 47.206 5.778zM24.8 63.121a6.87 6.87 0 11-11.96-6.767 6.87 6.87 0 0111.96 6.767zm34.283 19.397a6.87 6.87 0 11-11.96-6.767 6.87 6.87 0 0111.96 6.767z" fill="#99BAED"/></svg>